<?xml version="1.0" encoding="UTF-8"?>
<svg id="Calque_2" data-name="Calque 2" xmlns="http://www.w3.org/2000/svg" viewBox="0 0 288.53 94.68">
  <defs>
    <style>
      .cls-1 {
        fill: #1d1d1b;
      }

      .cls-2 {
        fill: #15bae4;
      }
    </style>
  </defs>
  <g id="Calque_1-2" data-name="Calque 1">
    <g>
      <path class="cls-2" d="M0,31.43h7.5c.06,3.12,2.4,5.22,7.08,5.22s7.08-2.1,7.08-5.22c0-3.42-3.66-4.08-7.92-4.86C7.8,25.49.78,24.23.78,15.11.78,7.85,6.3,2.75,14.64,2.75s13.56,4.86,13.86,12.06h-7.26c-.06-3-2.28-5.16-6.54-5.16s-6.48,2.34-6.48,5.22c0,3.42,3.66,4.08,7.92,4.86,5.94,1.08,13.02,2.34,13.02,11.46,0,7.62-5.82,12.36-14.58,12.36S.18,38.93,0,31.43Z"/>
      <path class="cls-2" d="M34.14,31.37V2.63h7.14v10.5h15.3v6.48h-15.3v11.76c0,3.96,2.04,5.52,4.98,5.52s4.98-1.5,4.98-5.52v-.78h7.14v.78c0,8.22-4.92,12.18-12.12,12.18s-12.12-3.96-12.12-12.18Z"/>
      <path class="cls-2" d="M61.74,28.25c0-9.42,6.6-15.9,16.02-15.9s15.78,6.3,15.78,15.84v14.58h-6.54v-5.82c-1.8,4.38-5.82,6.6-10.5,6.6-7.2,0-14.76-5.16-14.76-15.3ZM86.4,27.95c0-5.22-3.48-8.94-8.7-8.94s-8.76,3.72-8.76,8.94,3.54,8.94,8.76,8.94,8.7-3.72,8.7-8.94Z"/>
      <path class="cls-2" d="M99.42,25.55c0-8.94,5.28-13.2,13.02-13.2s12.96,4.26,12.96,13.32v.18h-7.08v-.3c0-4.8-2.4-6.54-5.88-6.54s-5.88,1.74-5.88,6.54v17.22h-7.14v-17.22Z"/>
      <path class="cls-2" d="M129.24,31.37V2.63h7.14v10.5h15.3v6.48h-15.3v11.76c0,3.96,2.04,5.52,4.98,5.52s4.98-1.5,4.98-5.52v-.78h7.14v.78c0,8.22-4.92,12.18-12.12,12.18s-12.12-3.96-12.12-12.18Z"/>
      <path class="cls-2" d="M187.32,28.73v18.42s-7.14,0-7.14,0v-18.42c0-5.64-3-8.34-7.5-8.34s-7.5,2.7-7.5,8.34v18.42s-7.14,0-7.14,0v-18.42c0-9.9,5.88-15,14.64-15s14.64,5.04,14.64,15Z"/>
      <path class="cls-2" d="M193.2,28.19c0-9.6,6.48-15.84,15.78-15.84s16.02,6.48,16.02,15.9c0,10.14-7.56,15.3-14.76,15.3-4.26,0-7.8-1.8-9.9-5.1v16.98h-7.14v-27.24ZM217.8,27.95c0-5.22-3.54-8.94-8.76-8.94s-8.7,3.72-8.7,8.94,3.48,8.94,8.7,8.94,8.76-3.72,8.76-8.94Z"/>
      <path class="cls-2" d="M58.26,50.36h16.02c10.2,0,14.76,5.64,14.76,13.32s-4.56,13.32-14.76,13.32h-8.34v12.6h-7.68v-39.24ZM74.4,69.92c5.1,0,6.84-2.64,6.84-6.24s-1.74-6.18-6.84-6.18h-8.46v12.42h8.46Z"/>
      <path class="cls-2" d="M93.24,72.38c0-8.94,5.28-13.2,13.02-13.2s12.96,4.26,12.96,13.32v.18h-7.08v-.3c0-4.8-2.4-6.54-5.88-6.54s-5.88,1.74-5.88,6.54v17.22h-7.14v-17.22Z"/>
      <path class="cls-2" d="M121.86,74.78c0-9,6.6-15.6,15.96-15.6s15.96,6.6,15.96,15.6-6.6,15.6-15.96,15.6-15.96-6.6-15.96-15.6ZM146.52,74.78c0-5.22-3.48-8.94-8.7-8.94s-8.76,3.72-8.76,8.94,3.54,8.94,8.76,8.94,8.7-3.72,8.7-8.94Z"/>
      <path class="cls-2" d="M156.44,88.5h.9c3,0,4.14-1.38,4.14-4.8v-31.74h7.14v31.26c0,7.44-3.06,11.46-10.62,11.46h-1.56v-6.18Z"/>
      <path class="cls-2" d="M171.48,88.5h.9c3,0,4.14-1.38,4.14-4.8v-31.74h7.14v31.26c0,7.44-3.06,11.46-10.62,11.46h-1.56v-6.18Z"/>
      <path class="cls-2" d="M189.32,74.78c0-9,6.6-15.6,15.96-15.6s15.84,6.6,15.84,15.6v2.52h-24.3c.96,4.32,4.26,6.6,8.46,6.6,3.18,0,5.52-.9,7.02-2.82h7.62c-2.22,5.64-7.62,9.3-14.64,9.3-9.36,0-15.96-6.6-15.96-15.6ZM213.56,71.6c-1.14-3.96-4.38-5.94-8.28-5.94s-7.14,2.04-8.28,5.94h16.56Z"/>
      <path class="cls-2" d="M224.6,74.78c0-9,6.6-15.6,15.96-15.6,8.04,0,13.92,4.86,15.36,11.88h-7.2c-1.26-3.18-4.26-5.22-8.16-5.22-5.22,0-8.76,3.72-8.76,8.94s3.54,8.94,8.76,8.94c3.9,0,6.9-2.04,8.16-5.22h7.2c-1.44,7.02-7.32,11.88-15.36,11.88-9.36,0-15.96-6.6-15.96-15.6Z"/>
      <path class="cls-2" d="M260.6,78.2v-28.74h7.14v10.5h15.3v6.48h-15.3v11.76c0,3.96,2.04,5.52,4.98,5.52s4.98-1.5,4.98-5.52v-.78h7.14v.78c0,8.22-4.92,12.18-12.12,12.18s-12.12-3.96-12.12-12.18Z"/>
      <circle class="cls-2" cx="173.08" cy="4.96" r="4.82"/>
      <path class="cls-1" d="M3.7,31.3h7.5c.06,3.12,2.4,5.22,7.08,5.22s7.08-2.1,7.08-5.22c0-3.42-3.66-4.08-7.92-4.86-5.94-1.08-12.96-2.34-12.96-11.46,0-7.26,5.52-12.36,13.86-12.36s13.56,4.86,13.86,12.06h-7.26c-.06-3-2.28-5.16-6.54-5.16s-6.48,2.34-6.48,5.22c0,3.42,3.66,4.08,7.92,4.86,5.94,1.08,13.02,2.34,13.02,11.46,0,7.62-5.82,12.36-14.58,12.36s-14.4-4.62-14.58-12.12Z"/>
      <path class="cls-1" d="M37.84,31.24V2.5h7.14v10.5h15.3v6.48h-15.3v11.76c0,3.96,2.04,5.52,4.98,5.52s4.98-1.5,4.98-5.52v-.78h7.14v.78c0,8.22-4.92,12.18-12.12,12.18s-12.12-3.96-12.12-12.18Z"/>
      <path class="cls-1" d="M65.44,28.12c0-9.42,6.6-15.9,16.02-15.9s15.78,6.3,15.78,15.84v14.58h-6.54v-5.82c-1.8,4.38-5.82,6.6-10.5,6.6-7.2,0-14.76-5.16-14.76-15.3ZM90.1,27.82c0-5.22-3.48-8.94-8.7-8.94s-8.76,3.72-8.76,8.94,3.54,8.94,8.76,8.94,8.7-3.72,8.7-8.94Z"/>
      <path class="cls-1" d="M103.12,25.42c0-8.94,5.28-13.2,13.02-13.2s12.96,4.26,12.96,13.32v.18h-7.08v-.3c0-4.8-2.4-6.54-5.88-6.54s-5.88,1.74-5.88,6.54v17.22h-7.14v-17.22Z"/>
      <path class="cls-1" d="M132.94,31.24V2.5h7.14v10.5h15.3v6.48h-15.3v11.76c0,3.96,2.04,5.52,4.98,5.52s4.98-1.5,4.98-5.52v-.78h7.14v.78c0,8.22-4.92,12.18-12.12,12.18s-12.12-3.96-12.12-12.18Z"/>
      <path class="cls-1" d="M191.02,28.6v18.42s-7.14,0-7.14,0v-18.42c0-5.64-3-8.34-7.5-8.34s-7.5,2.7-7.5,8.34v18.42s-7.14,0-7.14,0v-18.42c0-9.9,5.88-15,14.64-15s14.64,5.04,14.64,15Z"/>
      <path class="cls-1" d="M196.9,28.06c0-9.6,6.48-15.84,15.78-15.84s16.02,6.48,16.02,15.9c0,10.14-7.56,15.3-14.76,15.3-4.26,0-7.8-1.8-9.9-5.1v16.98h-7.14v-27.24ZM221.5,27.82c0-5.22-3.54-8.94-8.76-8.94s-8.7,3.72-8.7,8.94,3.48,8.94,8.7,8.94,8.76-3.72,8.76-8.94Z"/>
      <path class="cls-1" d="M61.96,50.23h16.02c10.2,0,14.76,5.64,14.76,13.32s-4.56,13.32-14.76,13.32h-8.34v12.6h-7.68v-39.24ZM78.1,69.79c5.1,0,6.84-2.64,6.84-6.24s-1.74-6.18-6.84-6.18h-8.46v12.42h8.46Z"/>
      <path class="cls-1" d="M96.94,72.25c0-8.94,5.28-13.2,13.02-13.2s12.96,4.26,12.96,13.32v.18h-7.08v-.3c0-4.8-2.4-6.54-5.88-6.54s-5.88,1.74-5.88,6.54v17.22h-7.14v-17.22Z"/>
      <path class="cls-1" d="M125.56,74.65c0-9,6.6-15.6,15.96-15.6s15.96,6.6,15.96,15.6-6.6,15.6-15.96,15.6-15.96-6.6-15.96-15.6ZM150.22,74.65c0-5.22-3.48-8.94-8.7-8.94s-8.76,3.72-8.76,8.94,3.54,8.94,8.76,8.94,8.7-3.72,8.7-8.94Z"/>
      <path class="cls-1" d="M160.14,88.36h.9c3,0,4.14-1.38,4.14-4.8v-31.74h7.14v31.26c0,7.44-3.06,11.46-10.62,11.46h-1.56v-6.18Z"/>
      <path class="cls-1" d="M175.18,88.36h.9c3,0,4.14-1.38,4.14-4.8v-31.74h7.14v31.26c0,7.44-3.06,11.46-10.62,11.46h-1.56v-6.18Z"/>
      <path class="cls-1" d="M193.02,74.65c0-9,6.6-15.6,15.96-15.6s15.84,6.6,15.84,15.6v2.52h-24.3c.96,4.32,4.26,6.6,8.46,6.6,3.18,0,5.52-.9,7.02-2.82h7.62c-2.22,5.64-7.62,9.3-14.64,9.3-9.36,0-15.96-6.6-15.96-15.6ZM217.25,71.47c-1.14-3.96-4.38-5.94-8.28-5.94s-7.14,2.04-8.28,5.94h16.56Z"/>
      <path class="cls-1" d="M228.3,74.65c0-9,6.6-15.6,15.96-15.6,8.04,0,13.92,4.86,15.36,11.88h-7.2c-1.26-3.18-4.26-5.22-8.16-5.22-5.22,0-8.76,3.72-8.76,8.94s3.54,8.94,8.76,8.94c3.9,0,6.9-2.04,8.16-5.22h7.2c-1.44,7.02-7.32,11.88-15.36,11.88-9.36,0-15.96-6.6-15.96-15.6Z"/>
      <path class="cls-1" d="M264.29,78.07v-28.74h7.14v10.5h15.3v6.48h-15.3v11.76c0,3.96,2.04,5.52,4.98,5.52s4.98-1.5,4.98-5.52v-.78h7.14v.78c0,8.22-4.92,12.18-12.12,12.18s-12.12-3.96-12.12-12.18Z"/>
      <circle class="cls-1" cx="176.78" cy="4.82" r="4.82"/>
    </g>
  </g>
</svg>
